<?xml version="1.0" encoding="UTF-8"?>
<svg id="Layer_1" xmlns="http://www.w3.org/2000/svg" viewBox="0 0 455.18 137.52">
  <defs>
    <style>
      .cls-1 {
        stroke-width: 2.21px;
      }

      .cls-1, .cls-2 {
        fill: none;
      }

      .cls-1, .cls-2, .cls-3 {
        stroke: #231f20;
        stroke-miterlimit: 10;
      }

      .cls-2 {
        stroke-width: .74px;
      }

      .cls-3 {
        fill: #231f20;
      }
    </style>
  </defs>
  <g>
    <g>
      <path class="cls-3" d="M.5,32.11c-.06-2.51.85-5.05,2.52-6.97,1.66-1.93,4.07-3.25,6.65-3.55,2.57-.3,5.27.37,7.4,1.89,2.14,1.51,3.72,3.83,4.29,6.43.13.65.22,1.31.24,1.97.04.68-.05,1.44-.29,2.13-.46,1.39-1.46,2.59-2.75,3.29-1.29.72-2.86.9-4.29.52-1.44-.37-2.72-1.3-3.52-2.56-.4-.63-.68-1.34-.82-2.07-.07-.37-.1-.74-.11-1.12l.02-.94c0-1.78,1.49-3.43,3.29-3.61.88-.11,1.8.13,2.53.63.73.51,1.24,1.3,1.4,2.15.08.43.09.85.02,1.27-.08.46-.28.89-.57,1.22-.58.68-1.62.87-2.24.35.6-.51.74-.95.83-1.29.04-.17.06-.32.03-.47-.03-.18-.07-.37-.15-.52-.3-.63-.93-1.02-1.58-.94-.63.06-1.2.62-1.22,1.29l-.04.87c0,.22.01.46.05.68.07.45.24.89.47,1.29.47.79,1.26,1.4,2.16,1.66.9.26,1.91.17,2.74-.27.84-.43,1.52-1.2,1.84-2.1.16-.46.24-.91.22-1.44,0-.55-.07-1.09-.15-1.63-.41-2.14-1.63-4.14-3.4-5.47-1.76-1.35-4.03-2.01-6.27-1.83-2.24.19-4.41,1.21-5.98,2.88-1.58,1.65-2.53,3.91-2.59,6.25h-.74Z"/>
      <line class="cls-2" x1=".87" y1="68.9" x2=".87" y2="32.11"/>
      <path class="cls-3" d="M13.93,27.37c1.28-.93,2.39-2.24,2.9-3.71.25-.74.34-1.51.24-2.25-.08-.73-.39-1.49-.73-2.2-.36-.7-.83-1.32-1.35-1.79-.52-.46-1.09-.75-1.57-.82-.25-.04-.48-.03-.73.02-.11,0-.27.09-.35.11-.06.02-.13.04-.21.09-.37.2-.84.89-1.45,1.71-.34-.42-.51-.9-.57-1.41-.04-.51.04-1.09.41-1.64.18-.27.44-.53.75-.71.3-.17.53-.27.82-.35.56-.18,1.19-.21,1.76-.08,1.18.23,2.04,1.02,2.62,1.8.57.81.92,1.68,1.2,2.53.12.43.26.85.35,1.28.11.43.2.9.21,1.36.05.93-.14,1.86-.5,2.69-.72,1.67-1.95,2.97-3.39,3.98l-.4-.62Z"/>
    </g>
    <g>
      <path class="cls-3" d="M32.12,1.24c-2.33.06-4.6,1-6.25,2.59-1.67,1.57-2.69,3.75-2.88,5.98-.18,2.24.48,4.52,1.84,6.27,1.34,1.77,3.33,2.99,5.48,3.4.54.09,1.08.15,1.63.15.53.01.98-.06,1.44-.22.9-.32,1.67-1,2.1-1.84.44-.84.52-1.85.27-2.74-.25-.9-.86-1.69-1.66-2.16-.4-.24-.83-.4-1.29-.47-.22-.04-.46-.05-.68-.05l-.87.04c-.67.02-1.23.59-1.29,1.22-.08.64.31,1.27.94,1.58.16.08.34.12.52.15.15.03.3,0,.47-.03.34-.09.78-.23,1.29-.83.52.62.32,1.66-.35,2.24-.34.29-.77.48-1.22.57-.43.08-.85.07-1.27-.02-.85-.17-1.64-.68-2.15-1.4-.5-.73-.75-1.65-.63-2.54.18-1.81,1.83-3.28,3.61-3.29l.94-.02c.38.01.75.04,1.12.11.74.14,1.44.42,2.07.82,1.26.8,2.2,2.08,2.56,3.52.37,1.43.19,3-.52,4.29-.7,1.29-1.9,2.29-3.29,2.75-.68.23-1.45.32-2.13.28-.66-.02-1.32-.11-1.97-.24-2.6-.57-4.93-2.15-6.43-4.29-1.53-2.13-2.19-4.83-1.89-7.4.3-2.58,1.62-4.99,3.56-6.65,1.93-1.67,4.47-2.57,6.97-2.52v.74Z"/>
      <line class="cls-2" x1="386.28" y1=".87" x2="32.12" y2=".87"/>
      <path class="cls-1" d="M386.28,4.64H52.32s0,5.6,0,5.6v1.75s-4.56-9.16-13.3-6.36c-8.74,2.8-14.14,5.6-23.4-3.65-3.69,0-9.91,3.73-14.17-.53,4.26,4.26.53,10.47.53,14.16,9.26,9.25,6.45,14.66,3.65,23.39-2.8,8.73,6.36,13.29,6.36,13.29h-7.36v16.61"/>
      <path class="cls-2" d="M12.01,53l5.6.06s-9.17-5.32-6.36-14.06c2.8-8.73,5.61-14.13-3.66-23.39,0-1.81.89-4.22,1.3-6.72,2.5-.41,4.9-1.3,6.72-1.3,9.26,9.26,14.67,6.45,23.41,3.65,8.74-2.8,14.07,6.36,14.07,6.36l-.06-5.59"/>
      <path class="cls-3" d="M28.01,14.33c-1.02,1.44-2.31,2.67-3.98,3.39-.83.36-1.76.55-2.69.5-.46-.01-.93-.1-1.36-.21-.43-.09-.85-.22-1.29-.35-.85-.28-1.72-.62-2.53-1.2-.78-.58-1.57-1.44-1.8-2.62-.13-.57-.11-1.2.08-1.76.08-.3.18-.52.35-.82.18-.31.44-.57.71-.75.55-.37,1.13-.45,1.64-.41.52.06,1,.22,1.41.57-.83.61-1.51,1.08-1.71,1.45-.05.08-.07.15-.09.21-.02.08-.1.23-.11.35-.06.25-.06.48-.02.73.07.49.36,1.05.82,1.57.47.52,1.1.99,1.79,1.34.71.35,1.47.65,2.2.73.75.1,1.52.01,2.25-.24,1.47-.51,2.78-1.62,3.71-2.9l.62.4Z"/>
    </g>
  </g>
  <g>
    <g>
      <path class="cls-3" d="M32.11,136.31c-2.51.06-5.05-.85-6.97-2.52-1.93-1.66-3.25-4.07-3.55-6.65-.3-2.57.37-5.27,1.89-7.4,1.51-2.14,3.83-3.72,6.43-4.29.65-.13,1.31-.22,1.97-.24.68-.04,1.44.05,2.13.29,1.39.46,2.59,1.46,3.29,2.75.72,1.29.9,2.86.52,4.29-.37,1.44-1.3,2.72-2.56,3.52-.63.4-1.34.68-2.07.82-.37.07-.74.1-1.12.11l-.94-.02c-1.78,0-3.43-1.49-3.61-3.29-.11-.88.13-1.8.63-2.53.51-.73,1.3-1.24,2.15-1.4.43-.08.85-.09,1.27-.02.46.08.89.28,1.22.57.68.58.87,1.62.35,2.24-.51-.6-.95-.74-1.29-.83-.17-.04-.32-.06-.47-.03-.18.03-.37.07-.52.15-.63.3-1.02.93-.94,1.58.06.63.62,1.2,1.29,1.22l.87.04c.22,0,.46-.01.68-.05.45-.07.89-.24,1.29-.47.79-.47,1.4-1.26,1.66-2.16.26-.9.18-1.91-.27-2.74-.43-.84-1.2-1.52-2.1-1.84-.46-.16-.91-.24-1.44-.22-.55,0-1.09.07-1.63.15-2.14.41-4.14,1.63-5.47,3.4-1.35,1.76-2.01,4.03-1.83,6.27.19,2.24,1.21,4.41,2.88,5.98,1.65,1.58,3.91,2.53,6.25,2.59v.74Z"/>
      <line class="cls-2" x1="386.28" y1="136.65" x2="32.11" y2="135.94"/>
      <path class="cls-3" d="M27.37,122.88c-.93-1.28-2.24-2.39-3.71-2.9-.74-.25-1.51-.34-2.25-.24-.73.08-1.49.39-2.2.73-.7.36-1.32.83-1.79,1.35-.46.52-.75,1.09-.82,1.57-.04.25-.03.48.02.73,0,.11.09.27.11.35.02.06.04.13.09.21.2.37.89.84,1.71,1.45-.42.34-.9.51-1.41.57-.51.04-1.09-.04-1.64-.41-.27-.18-.53-.44-.71-.75-.17-.3-.27-.53-.35-.82-.18-.56-.21-1.19-.08-1.76.23-1.18,1.02-2.04,1.8-2.62.81-.57,1.68-.92,2.53-1.2.43-.12.85-.26,1.28-.35.43-.11.9-.2,1.36-.21.93-.05,1.86.14,2.69.5,1.67.72,2.97,1.95,3.98,3.39l-.62.4Z"/>
    </g>
    <g>
      <path class="cls-3" d="M1.24,104.69c.06,2.33,1,4.6,2.59,6.25,1.57,1.67,3.75,2.69,5.98,2.88,2.24.18,4.52-.48,6.27-1.84,1.77-1.34,2.99-3.33,3.4-5.48.09-.54.15-1.08.15-1.63.01-.53-.06-.98-.22-1.44-.32-.9-1-1.67-1.84-2.1-.84-.44-1.85-.52-2.74-.27-.9.25-1.69.86-2.16,1.66-.24.4-.4.83-.47,1.29-.04.22-.05.46-.05.68l.04.87c.02.67.59,1.23,1.22,1.29.64.08,1.27-.31,1.58-.94.08-.16.12-.34.15-.52.03-.15,0-.3-.03-.47-.09-.34-.23-.78-.83-1.29.62-.52,1.66-.32,2.24.35.29.34.48.77.57,1.22.08.43.07.85-.02,1.27-.17.85-.68,1.64-1.4,2.15-.73.5-1.65.75-2.54.63-1.81-.18-3.28-1.83-3.29-3.61l-.02-.94c.01-.38.04-.75.11-1.12.14-.74.42-1.44.82-2.07.8-1.26,2.08-2.2,3.52-2.56,1.43-.37,3-.19,4.29.52,1.29.7,2.29,1.9,2.75,3.29.23.68.32,1.45.28,2.13-.02.66-.11,1.32-.24,1.97-.57,2.6-2.15,4.93-4.29,6.43-2.13,1.53-4.83,2.19-7.4,1.89-2.58-.3-4.99-1.62-6.65-3.56-1.67-1.93-2.57-4.47-2.52-6.97h.74Z"/>
      <line class="cls-2" x1=".87" y1="67.87" x2=".87" y2="104.69"/>
      <path class="cls-1" d="M4.63,67.87v16.62h5.6s1.75,0,1.75,0c0,0-9.16,4.56-6.36,13.3,2.8,8.74,5.6,14.14-3.65,23.4,0,3.69,3.73,9.91-.53,14.17,4.26-4.26,10.47-.53,14.16-.53,9.25-9.26,14.66-6.45,23.39-3.65,8.73,2.8,13.29-6.36,13.29-6.36v7.36s333.98.71,333.98.71"/>
      <path class="cls-2" d="M53,124.8l.06-5.6s-5.32,9.17-14.06,6.36c-8.73-2.8-14.13-5.61-23.39,3.66-1.81,0-4.22-.89-6.72-1.3-.41-2.5-1.3-4.9-1.3-6.72,9.26-9.26,6.45-14.67,3.65-23.41-2.8-8.74,6.36-14.07,6.36-14.07l-5.59.06"/>
      <path class="cls-3" d="M14.33,108.8c1.44,1.02,2.67,2.31,3.39,3.98.36.83.55,1.76.5,2.69-.01.46-.1.93-.21,1.36-.09.43-.22.85-.35,1.29-.28.85-.62,1.72-1.2,2.53-.58.78-1.44,1.57-2.62,1.8-.57.13-1.2.11-1.76-.08-.3-.08-.52-.18-.82-.35-.31-.18-.57-.44-.75-.71-.37-.55-.45-1.13-.41-1.64.06-.52.22-1,.57-1.41.61.83,1.08,1.51,1.45,1.71.08.05.15.07.21.09.08.02.23.1.35.11.25.06.48.06.73.02.49-.07,1.05-.36,1.57-.82.52-.47.99-1.1,1.34-1.79.35-.71.65-1.47.73-2.2.1-.75.01-1.52-.24-2.25-.51-1.47-1.62-2.78-2.9-3.71l.4-.62Z"/>
    </g>
  </g>
  <g>
    <g>
      <path class="cls-3" d="M423.07.5c2.51-.06,5.05.85,6.97,2.52,1.93,1.66,3.25,4.07,3.55,6.65.3,2.57-.37,5.27-1.89,7.4-1.51,2.14-3.83,3.72-6.43,4.29-.65.13-1.31.22-1.97.24-.68.04-1.44-.05-2.13-.29-1.39-.46-2.59-1.46-3.29-2.75-.72-1.29-.9-2.86-.52-4.29.37-1.44,1.3-2.72,2.56-3.52.63-.4,1.34-.68,2.07-.82.37-.07.74-.1,1.12-.11l.94.02c1.78,0,3.43,1.49,3.61,3.29.11.88-.13,1.8-.63,2.53-.51.73-1.3,1.24-2.15,1.4-.43.08-.85.09-1.27.02-.46-.08-.89-.28-1.22-.57-.68-.58-.87-1.62-.35-2.24.51.6.95.74,1.29.83.17.04.32.06.47.03.18-.03.37-.07.52-.15.63-.3,1.02-.93.94-1.58-.06-.63-.62-1.2-1.29-1.22l-.87-.04c-.22,0-.46.01-.68.05-.45.07-.89.24-1.29.47-.79.47-1.4,1.26-1.66,2.16-.26.9-.18,1.91.27,2.74.43.84,1.2,1.52,2.1,1.84.46.16.91.24,1.44.22.55,0,1.09-.07,1.63-.15,2.14-.41,4.14-1.63,5.47-3.4,1.35-1.76,2.01-4.03,1.83-6.27-.19-2.24-1.21-4.41-2.88-5.98-1.65-1.58-3.91-2.53-6.25-2.59v-.74Z"/>
      <line class="cls-2" x1="386.28" y1=".87" x2="423.07" y2=".87"/>
      <path class="cls-3" d="M427.8,13.93c.93,1.28,2.24,2.39,3.71,2.9.74.25,1.51.34,2.25.24.73-.08,1.49-.39,2.2-.73.7-.36,1.32-.83,1.79-1.35.46-.52.75-1.09.82-1.57.04-.25.03-.48-.02-.73,0-.11-.09-.27-.11-.35-.02-.06-.04-.13-.09-.21-.2-.37-.89-.84-1.71-1.45.42-.34.9-.51,1.41-.57.51-.04,1.09.04,1.64.41.27.18.53.44.71.75.17.3.27.53.35.82.18.56.21,1.19.08,1.76-.23,1.18-1.02,2.04-1.8,2.62-.81.57-1.68.92-2.53,1.2-.43.12-.85.26-1.28.35-.43.11-.9.2-1.36.21-.93.05-1.86-.14-2.69-.5-1.67-.72-2.97-1.95-3.98-3.39l.62-.4Z"/>
    </g>
    <g>
      <path class="cls-3" d="M453.94,32.12c-.06-2.33-1-4.6-2.59-6.25-1.57-1.67-3.75-2.69-5.98-2.88-2.24-.18-4.52.48-6.27,1.84-1.77,1.34-2.99,3.33-3.4,5.48-.09.54-.15,1.08-.15,1.63-.01.53.06.98.22,1.44.32.9,1,1.67,1.84,2.1.84.44,1.85.52,2.74.27.9-.25,1.69-.86,2.16-1.66.24-.4.4-.83.47-1.29.04-.22.05-.46.05-.68l-.04-.87c-.02-.67-.59-1.23-1.22-1.29-.64-.08-1.27.31-1.58.94-.08.16-.12.34-.15.52-.03.15,0,.3.03.47.09.34.23.78.83,1.29-.62.52-1.66.32-2.24-.35-.29-.34-.48-.77-.57-1.22-.08-.43-.07-.85.02-1.27.17-.85.68-1.64,1.4-2.15.73-.5,1.65-.75,2.54-.63,1.81.18,3.28,1.83,3.29,3.61l.02.94c-.01.38-.04.75-.11,1.12-.14.74-.42,1.44-.82,2.07-.8,1.26-2.08,2.2-3.52,2.56-1.43.37-3,.19-4.29-.52-1.29-.7-2.29-1.9-2.75-3.29-.23-.68-.32-1.45-.28-2.13.02-.66.11-1.32.24-1.97.57-2.6,2.15-4.93,4.29-6.43,2.13-1.53,4.83-2.19,7.4-1.89,2.58.3,4.99,1.62,6.65,3.56,1.67,1.93,2.57,4.47,2.52,6.97h-.74Z"/>
      <line class="cls-2" x1="454.31" y1="68.94" x2="454.31" y2="32.12"/>
      <path class="cls-1" d="M450.55,68.94v-16.62h-5.6s-1.75,0-1.75,0c0,0,9.16-4.56,6.36-13.3-2.8-8.74-5.6-14.14,3.65-23.4,0-3.69-3.73-9.91.53-14.17-4.26,4.26-10.47.53-14.16.53-9.25,9.26-14.66,6.45-23.39,3.65-8.73-2.8-13.29,6.36-13.29,6.36v-7.36h-16.61"/>
      <path class="cls-2" d="M402.18,12.01l-.06,5.6s5.32-9.17,14.06-6.36c8.73,2.8,14.13,5.61,23.39-3.66,1.81,0,4.22.89,6.72,1.3.41,2.5,1.3,4.9,1.3,6.72-9.26,9.26-6.45,14.67-3.65,23.41,2.8,8.74-6.36,14.07-6.36,14.07l5.59-.06"/>
      <path class="cls-3" d="M440.85,28.01c-1.44-1.02-2.67-2.31-3.39-3.98-.36-.83-.55-1.76-.5-2.69.01-.46.1-.93.21-1.36.09-.43.22-.85.35-1.29.28-.85.62-1.72,1.2-2.53.58-.78,1.44-1.57,2.62-1.8.57-.13,1.2-.11,1.76.08.3.08.52.18.82.35.31.18.57.44.75.71.37.55.45,1.13.41,1.64-.06.52-.22,1-.57,1.41-.61-.83-1.08-1.51-1.45-1.71-.08-.05-.15-.07-.21-.09-.08-.02-.23-.1-.35-.11-.25-.06-.48-.06-.73-.02-.49.07-1.05.36-1.57.82-.52.47-.99,1.1-1.34,1.79-.35.71-.65,1.47-.73,2.2-.1.75-.01,1.52.24,2.25.51,1.47,1.62,2.78,2.9,3.71l-.4.62Z"/>
    </g>
  </g>
  <g>
    <g>
      <path class="cls-3" d="M423.07,137.02c2.51.06,5.05-.85,6.97-2.52,1.93-1.66,3.25-4.07,3.55-6.65.3-2.57-.37-5.27-1.89-7.4-1.51-2.14-3.83-3.72-6.43-4.29-.65-.13-1.31-.22-1.97-.24-.68-.04-1.44.05-2.13.29-1.39.46-2.59,1.46-3.29,2.75-.72,1.29-.9,2.86-.52,4.29.37,1.44,1.3,2.72,2.56,3.52.63.4,1.34.68,2.07.82.37.07.74.1,1.12.11l.94-.02c1.78,0,3.43-1.49,3.61-3.29.11-.88-.13-1.8-.63-2.53-.51-.73-1.3-1.24-2.15-1.4-.43-.08-.85-.09-1.27-.02-.46.08-.89.28-1.22.57-.68.58-.87,1.62-.35,2.24.51-.6.95-.74,1.29-.83.17-.04.32-.06.47-.03.18.03.37.07.52.15.63.3,1.01.93.94,1.58-.06.63-.62,1.2-1.29,1.22l-.87.04c-.22,0-.46-.01-.68-.05-.45-.07-.89-.24-1.29-.47-.79-.47-1.4-1.26-1.66-2.16-.26-.9-.18-1.91.27-2.74.43-.84,1.2-1.52,2.1-1.84.46-.16.91-.24,1.44-.22.55,0,1.09.07,1.63.15,2.14.41,4.14,1.63,5.47,3.4,1.35,1.76,2.01,4.03,1.83,6.27-.19,2.24-1.21,4.41-2.88,5.98-1.65,1.58-3.91,2.53-6.25,2.59v.74Z"/>
      <line class="cls-2" x1="386.28" y1="136.65" x2="423.07" y2="136.65"/>
      <path class="cls-3" d="M427.8,123.59c.93-1.28,2.24-2.39,3.71-2.9.74-.25,1.51-.34,2.25-.24.73.08,1.49.39,2.2.73.7.36,1.32.83,1.79,1.35.46.52.75,1.09.82,1.57.04.25.03.48-.02.73,0,.11-.09.27-.11.35-.02.06-.04.13-.09.21-.2.37-.89.84-1.71,1.45.42.34.9.51,1.41.57.51.04,1.09-.04,1.64-.41.27-.18.53-.44.71-.75.17-.3.27-.53.35-.82.18-.56.21-1.19.08-1.76-.23-1.18-1.02-2.04-1.8-2.62-.81-.57-1.68-.92-2.53-1.2-.43-.12-.85-.26-1.28-.35-.43-.11-.9-.2-1.36-.21-.93-.05-1.86.14-2.69.5-1.67.72-2.97,1.95-3.98,3.39l.62.4Z"/>
    </g>
    <g>
      <path class="cls-3" d="M453.94,105.4c-.06,2.33-1,4.6-2.59,6.25-1.57,1.67-3.75,2.69-5.98,2.88-2.24.18-4.52-.48-6.27-1.84-1.77-1.34-2.99-3.33-3.4-5.48-.09-.54-.15-1.08-.15-1.63-.01-.53.06-.98.22-1.44.32-.9,1-1.67,1.84-2.1.84-.44,1.85-.52,2.74-.27.9.25,1.69.86,2.16,1.66.24.4.4.83.47,1.29.04.22.05.46.05.68l-.04.87c-.02.67-.59,1.23-1.22,1.29-.64.08-1.27-.31-1.58-.94-.08-.16-.12-.34-.15-.52-.03-.15,0-.3.03-.47.09-.34.23-.78.83-1.29-.62-.52-1.66-.32-2.24.35-.29.34-.48.77-.57,1.22-.08.43-.07.85.02,1.27.17.85.68,1.64,1.4,2.15.73.5,1.65.75,2.54.63,1.81-.18,3.28-1.83,3.29-3.61l.02-.94c-.01-.38-.04-.75-.11-1.12-.14-.74-.42-1.44-.82-2.07-.8-1.26-2.08-2.2-3.52-2.56-1.43-.37-3-.19-4.29.52-1.29.7-2.29,1.9-2.75,3.29-.23.68-.32,1.45-.28,2.13.02.66.11,1.32.24,1.97.57,2.6,2.15,4.93,4.29,6.43,2.13,1.53,4.83,2.19,7.4,1.89,2.58-.3,4.99-1.62,6.65-3.56,1.67-1.93,2.57-4.47,2.52-6.97h-.74Z"/>
      <line class="cls-2" x1="454.31" y1="68.58" x2="454.31" y2="105.4"/>
      <path class="cls-1" d="M450.55,68.58v16.62h-5.6s-1.75,0-1.75,0c0,0,9.16,4.56,6.36,13.3-2.8,8.74-5.6,14.14,3.65,23.4,0,3.69-3.73,9.91.53,14.17-4.26-4.26-10.47-.53-14.16-.53-9.25-9.26-14.66-6.45-23.39-3.65-8.73,2.8-13.29-6.36-13.29-6.36v7.36h-16.61"/>
      <path class="cls-2" d="M402.18,125.51l-.06-5.6s5.32,9.17,14.06,6.36c8.73-2.8,14.13-5.61,23.39,3.66,1.81,0,4.22-.89,6.72-1.3.41-2.5,1.3-4.9,1.3-6.72-9.26-9.26-6.45-14.67-3.65-23.41,2.8-8.74-6.36-14.07-6.36-14.07l5.59.06"/>
      <path class="cls-3" d="M440.85,109.52c-1.44,1.02-2.67,2.31-3.39,3.98-.36.83-.55,1.76-.5,2.69.01.46.1.93.21,1.36.09.43.22.85.35,1.29.28.85.62,1.72,1.2,2.53.58.78,1.44,1.57,2.62,1.8.57.13,1.2.11,1.76-.08.3-.08.52-.18.82-.35.31-.18.57-.44.75-.71.37-.55.45-1.13.41-1.64-.06-.52-.22-1-.57-1.41-.61.83-1.08,1.51-1.45,1.71-.08.05-.15.07-.21.09-.08.02-.23.1-.35.11-.25.06-.48.06-.73.02-.49-.07-1.05-.36-1.57-.82-.52-.47-.99-1.1-1.34-1.79-.35-.71-.65-1.47-.73-2.2-.1-.75-.01-1.52.24-2.25.51-1.47,1.62-2.78,2.9-3.71l-.4-.62Z"/>
    </g>
  </g>
</svg>